#!OML:ASF E:\acrobat2\Project_11_07_03\Capture day 1\Session 1\Acrobat.ASF
:FULLY-SPECIFIED
:DEGREES
701
root 11.2194 14.2209 -12.8595 183.327 1.17069 -176.532
lowerback -7.78066 -0.0466066 2.42447
upperback -6.82341 0.500965 -1.60499
thorax -2.6904 0.421501 -3.0091
lowerneck 1.03888 -1.43665 2.32388
upperneck 1.31319 -1.72216 5.58084
head 0.260319 -0.742066 1.32862
rclavicle -4.17448e-015 3.18055e-015
rhumerus 91.1136 -41.2307 -52.508
rradius 29.0533
rwrist -3.10181
rhand -20.4012 318.472
rfingers 7.12502
rthumb 5.95246 -431.424
lclavicle -4.17448e-015 3.18055e-015
lhumerus -39.5319 3.94554 67.1413
lradius 9.40175
lwrist 0.141872
lhand -7.3658 -1.02597
lfingers 7.12502
lthumb 18.519 28.1125
rfemur 24.3525 48.4789 -0.7344
rtibia -5.17807
rfoot -60.8309 -21.1949
rtoes 9.0351
lfemur 22.5519 -49.4376 11.8521
ltibia -9.65441
lfoot -62.4538 -20.7608
ltoes 53.5974
702
root 11.2196 14.2199 -12.8564 183.356 1.23853 -176.45
lowerback -7.69437 -0.0726495 2.45549
upperback -6.80407 0.458937 -1.50955
thorax -2.72097 0.397578 -2.92999
lowerneck 1.20485 -1.42818 2.10048
upperneck 1.09993 -1.69889 5.68941
head 0.170094 -0.741692 1.40246
rclavicle -5.96354e-016 1.03368e-014
rhumerus 90.3805 -41.2552 -51.6571
rradius 29.1627
rwrist -3.40756
rhand -20.0713 317.943
rfingers 7.12502
rthumb 6.27094 -431.945
lclavicle -5.96354e-016 1.03368e-014
lhumerus -39.5059 4.17247 67.2265
lradius 9.35633
lwrist 0.0771899
lhand -7.51142 -1.35541
lfingers 7.12502
lthumb 18.3789 27.7964
rfemur 24.1895 48.4487 -0.789946
rtibia -5.1762
rfoot -60.7225 -21.0988
rtoes 9.30347
lfemur 22.528 -49.295 11.9992
ltibia -9.6977
lfoot -62.3496 -20.7671
ltoes 53.6128
703
root 11.2214 14.2188 -12.8505 183.391 1.27618 -176.436
lowerback -7.5276 -0.103284 2.447
upperback -6.86207 0.42525 -1.47718
thorax -2.87647 0.379792 -2.89549
lowerneck 1.48148 -1.44784 2.09144
upperneck 0.943379 -1.70983 5.59619
head 0.0756542 -0.758355 1.3771
rclavicle 8.15017e-015 -3.97569e-014
rhumerus 89.4304 -41.2712 -50.5734
rradius 29.203
rwrist -3.87633
rhand -19.8642 317.769
rfingers 7.12502
rthumb 6.47095 -432.113
lclavicle 8.15017e-015 -3.97569e-014
lhumerus -39.716 4.23725 67.2132
lradius 9.51302
lwrist -0.0571993
lhand -7.57068 -1.35196
lfingers 7.12502
lthumb 18.3219 27.8052
rfemur 24.0876 48.463 -0.859526
rtibia -5.18859
rfoot -60.6699 -21.1116
rtoes 9.26728
lfemur 22.4256 -49.1832 12.1373
ltibia -9.7253
lfoot -62.2545 -20.7046
ltoes 53.6211
704
root 11.2235 14.2179 -12.8379 183.451 1.2661 -176.417
lowerback -7.46223 -0.106999 2.51386
upperback -6.81401 0.407909 -1.50487
thorax -2.86345 0.364451 -2.96253
lowerneck 1.6997 -1.54007 2.38063
upperneck 0.709394 -1.8163 5.22757
head -0.0358856 -0.82507 1.21549
rclavicle -3.57812e-015 2.06736e-014
rhumerus 88.87 -41.387 -50.0114
rradius 29.2701
rwrist -4.11691
rhand -19.8441 317.951
rfingers 7.12502
rthumb 6.49035 -431.929
lclavicle -3.57812e-015 2.06736e-014
lhumerus -39.7136 4.2803 67.1986
lradius 9.55904
lwrist -0.277408
lhand -7.62667 -1.366
lfingers 7.12502
lthumb 18.268 27.7962
rfemur 24.0096 48.5328 -0.876638
rtibia -5.18877
rfoot -60.7545 -21.0536
rtoes 9.26251
lfemur 22.0801 -48.9429 12.5082
ltibia -9.71776
lfoot -61.8481 -20.9195
ltoes 53.7872
705
root 11.2223 14.2174 -12.8267 183.517 1.21032 -176.522
lowerback -7.44416 -0.143777 2.45878
upperback -6.69528 0.342333 -1.54144
thorax -2.75258 0.328352 -2.9711
lowerneck 1.62445 -1.58712 2.62596
upperneck 0.614949 -1.88443 4.89234
head -0.0563813 -0.864566 1.06989
rclavicle -1.07344e-014 3.81667e-014
rhumerus 88.6732 -41.4583 -49.837
rradius 29.3809
rwrist -4.21397
rhand -20.1087 318.159
rfingers 7.12502
rthumb 6.23483 -431.729
lclavicle -1.07344e-014 3.81667e-014
lhumerus -39.5627 4.46437 67.2425
lradius 9.45069
lwrist -0.386356
lhand -7.93888 -1.63546
lfingers 7.12502
lthumb 17.9676 27.5546
rfemur 23.9943 48.5441 -1.01999
rtibia -5.25172
rfoot -60.874 -20.9505
rtoes 9.46394
lfemur 21.7893 -48.8388 12.6355
ltibia -9.68293
lfoot -61.5369 -21.3358
ltoes 54.0343
706
root 11.2207 14.2162 -12.8219 183.544 1.19312 -176.59
lowerback -7.31174 -0.216846 2.38977
upperback -6.6466 0.238518 -1.52712
thorax -2.7812 0.274321 -2.92247
lowerneck 1.27163 -1.51659 2.74453
upperneck 0.899456 -1.82298 4.73433
head 0.0849475 -0.822779 0.996533
rclavicle -3.97569e-016 1.43125e-014
rhumerus 88.2798 -41.4095 -49.4224
rradius 29.5149
rwrist -4.52793
rhand -20.5735 318.257
rfingers 7.12502
rthumb 5.78614 -431.644
lclavicle -3.97569e-016 1.43125e-014
lhumerus -39.5209 4.70684 67.2362
lradius 9.25587
lwrist -0.424773
lhand -8.4373 -2.00361
lfingers 7.12502
lthumb 17.488 27.2298
rfemur 23.954 48.4673 -1.17674
rtibia -5.3194
rfoot -60.7873 -21.0001
rtoes 9.339
lfemur 21.7026 -48.789 12.633
ltibia -9.68456
lfoot -61.5227 -21.3886
ltoes 54.1225
707
root 11.2207 14.2149 -12.8196 183.53 1.21182 -176.511
lowerback -7.13021 -0.260138 2.45681
upperback -6.62929 0.171629 -1.47602
thorax -2.86846 0.233901 -2.91081
lowerneck 0.896707 -1.44819 2.73081
upperneck 1.31343 -1.76899 4.72239
head 0.271858 -0.779262 0.991
rclavicle -1.78906e-015 2.54444e-014
rhumerus 87.5171 -41.4626 -48.6378
rradius 29.7215
rwrist -4.97493
rhand -20.8622 318.237
rfingers 7.12502
rthumb 5.50741 -431.671
lclavicle -1.78906e-015 2.54444e-014
lhumerus -39.5614 4.87166 67.219
lradius 9.17364
lwrist -0.511136
lhand -8.74021 -2.05774
lfingers 7.12502
lthumb 17.1965 27.2013
rfemur 24.0122 48.5609 -1.02089
rtibia -5.31546
rfoot -60.8476 -21.0739
rtoes 9.15767
lfemur 21.664 -48.6426 12.8099
ltibia -9.73932
lfoot -61.495 -21.0981
ltoes 54.0117
708
root 11.2215 14.2151 -12.816 183.543 1.20701 -176.491
lowerback -7.00939 -0.291316 2.47368
upperback -6.62177 0.126301 -1.45944
thorax -2.93066 0.207663 -2.90543
lowerneck 0.877584 -1.42994 2.49869
upperneck 1.401 -1.74756 4.97883
head 0.306397 -0.763515 1.10916
rclavicle -1.98785e-015 1.98785e-014
rhumerus 86.7787 -41.4984 -47.8595
rradius 29.8164
rwrist -5.27057
rhand -20.7976 318.17
rfingers 7.12502
rthumb 5.56973 -431.737
lclavicle -1.98785e-015 1.98785e-014
lhumerus -39.6579 4.95656 67.2154
lradius 9.21508
lwrist -0.565485
lhand -8.80759 -1.75398
lfingers 7.12502
lthumb 17.1316 27.5107
rfemur 24.1809 48.8137 -0.789277
rtibia -5.31428
rfoot -61.1958 -21.107
rtoes 9.35946
lfemur 21.553 -48.5394 12.9615
ltibia -9.77064
lfoot -61.2978 -21.1572
ltoes 54.0734
709
root 11.2214 14.2162 -12.8113 183.574 1.17524 -176.57
lowerback -6.88742 -0.330727 2.41132
upperback -6.66797 0.0824684 -1.49616
thorax -3.04938 0.186654 -2.91125
lowerneck 1.25793 -1.42242 2.23572
upperneck 1.16399 -1.70334 5.35118
head 0.176627 -0.749251 1.27306
rclavicle -9.93923e-016 -1.98785e-014
rhumerus 86.0241 -41.3962 -47.1336
rradius 29.8919
rwrist -5.38623
rhand -20.4236 317.979
rfingers 7.12502
rthumb 5.93083 -431.918
lclavicle -9.93923e-016 -1.98785e-014
lhumerus -39.9366 4.92838 67.1463
lradius 9.41933
lwrist -0.52646
lhand -8.75812 -1.42187
lfingers 7.12502
lthumb 17.1793 27.8387
rfemur 24.3623 49.032 -0.678546
rtibia -5.36782
rfoot -61.5486 -21.1622
rtoes 9.5873
lfemur 21.5175 -48.6542 12.8709
ltibia -9.75276
lfoot -61.2573 -21.4589
ltoes 54.2802
710
root 11.2211 14.2156 -12.8078 183.581 1.18156 -176.631
lowerback -6.77528 -0.34537 2.36368
upperback -6.67623 0.0646576 -1.52448
thorax -3.12107 0.176978 -2.91496
lowerneck 1.3767 -1.43564 2.19392
upperneck 1.11708 -1.71372 5.37784
head 0.143437 -0.757491 1.28952
rclavicle 7.95139e-015 -4.21423e-014
rhumerus 85.9214 -41.2292 -47.257
rradius 29.8925
rwrist -5.08863
rhand -20.1785 318.056
rfingers 7.12502
rthumb 6.16744 -431.834
lclavicle 7.95139e-015 -4.21423e-014
lhumerus -40.2036 4.88168 67.0707
lradius 9.72594
lwrist -0.460671
lhand -8.73798 -1.24196
lfingers 7.12502
lthumb 17.1986 28.0169
rfemur 24.4517 49.1401 -0.67028
rtibia -5.42814
rfoot -61.6802 -21.1572
rtoes 9.73512
lfemur 21.7014 -48.9208 12.5947
ltibia -9.76663
lfoot -61.6132 -21.5141
ltoes 54.3077
711
root 11.2224 14.2149 -12.8038 183.604 1.25993 -176.658
lowerback -6.71243 -0.341899 2.31199
upperback -6.61052 0.0596545 -1.50778
thorax -3.08641 0.172773 -2.86801
lowerneck 1.23874 -1.47038 2.32411
upperneck 1.14457 -1.77625 5.08232
head 0.171684 -0.791028 1.17391
rclavicle -3.37934e-015 0
rhumerus 87.0013 -40.9059 -48.5797
rradius 29.4291
rwrist -4.11598
rhand -20.1464 318.437
rfingers 7.12502
rthumb 6.19844 -431.452
lclavicle -3.37934e-015 0
lhumerus -40.2142 4.96819 67.0636
lradius 9.82523
lwrist -0.416772
lhand -8.85715 -1.30986
lfingers 7.12502
lthumb 17.0839 27.959
rfemur 24.3918 49.2756 -0.736772
rtibia -5.44355
rfoot -61.7717 -21.0359
rtoes 10.0745
lfemur 21.7889 -48.9591 12.4879
ltibia -9.79231
lfoot -61.8112 -21.5018
ltoes 54.2899
